<mxfile host="app.diagrams.net" modified="2022-06-07T11:13:39.738Z" agent="5.0 (Windows)" etag="fmF-IUSw7FlFL7XnF0ir" version="19.0.2" type="github">
  <diagram id="C5RBs43oDa-KdzZeNtuy" name="Page-1">
    <mxGraphModel dx="862" dy="440" grid="1" gridSize="10" guides="1" tooltips="1" connect="1" arrows="1" fold="1" page="1" pageScale="1" pageWidth="827" pageHeight="1169" math="0" shadow="0">
      <root>
        <mxCell id="WIyWlLk6GJQsqaUBKTNV-0" />
        <mxCell id="WIyWlLk6GJQsqaUBKTNV-1" parent="WIyWlLk6GJQsqaUBKTNV-0" />
        <mxCell id="WIyWlLk6GJQsqaUBKTNV-2" value="" style="rounded=0;html=1;jettySize=auto;orthogonalLoop=1;fontSize=11;endArrow=block;endFill=0;endSize=8;strokeWidth=1;shadow=0;labelBackgroundColor=none;edgeStyle=orthogonalEdgeStyle;" parent="WIyWlLk6GJQsqaUBKTNV-1" source="WIyWlLk6GJQsqaUBKTNV-3" edge="1">
          <mxGeometry relative="1" as="geometry">
            <mxPoint x="220" y="170" as="targetPoint" />
          </mxGeometry>
        </mxCell>
        <mxCell id="WIyWlLk6GJQsqaUBKTNV-3" value="&lt;div&gt;Start&lt;/div&gt;" style="rounded=1;whiteSpace=wrap;html=1;fontSize=12;glass=0;strokeWidth=1;shadow=0;" parent="WIyWlLk6GJQsqaUBKTNV-1" vertex="1">
          <mxGeometry x="160" y="80" width="120" height="40" as="geometry" />
        </mxCell>
        <mxCell id="jwVwiETMQvePcrX8b3Qj-6" value="" style="edgeStyle=orthogonalEdgeStyle;rounded=0;orthogonalLoop=1;jettySize=auto;html=1;" edge="1" parent="WIyWlLk6GJQsqaUBKTNV-1" source="jwVwiETMQvePcrX8b3Qj-1" target="jwVwiETMQvePcrX8b3Qj-5">
          <mxGeometry relative="1" as="geometry" />
        </mxCell>
        <mxCell id="jwVwiETMQvePcrX8b3Qj-1" value="&lt;div&gt;Declare two variables&lt;/div&gt;" style="rounded=1;whiteSpace=wrap;html=1;" vertex="1" parent="WIyWlLk6GJQsqaUBKTNV-1">
          <mxGeometry x="160" y="160" width="120" height="60" as="geometry" />
        </mxCell>
        <mxCell id="jwVwiETMQvePcrX8b3Qj-8" value="" style="edgeStyle=orthogonalEdgeStyle;rounded=0;orthogonalLoop=1;jettySize=auto;html=1;" edge="1" parent="WIyWlLk6GJQsqaUBKTNV-1" source="jwVwiETMQvePcrX8b3Qj-5" target="jwVwiETMQvePcrX8b3Qj-7">
          <mxGeometry relative="1" as="geometry" />
        </mxCell>
        <mxCell id="jwVwiETMQvePcrX8b3Qj-5" value="Ask for user input" style="ellipse;whiteSpace=wrap;html=1;rounded=1;" vertex="1" parent="WIyWlLk6GJQsqaUBKTNV-1">
          <mxGeometry x="160" y="260" width="120" height="60" as="geometry" />
        </mxCell>
        <mxCell id="jwVwiETMQvePcrX8b3Qj-10" value="" style="edgeStyle=orthogonalEdgeStyle;rounded=0;orthogonalLoop=1;jettySize=auto;html=1;" edge="1" parent="WIyWlLk6GJQsqaUBKTNV-1" source="jwVwiETMQvePcrX8b3Qj-7" target="jwVwiETMQvePcrX8b3Qj-9">
          <mxGeometry relative="1" as="geometry" />
        </mxCell>
        <mxCell id="jwVwiETMQvePcrX8b3Qj-7" value="user input = variable 1" style="whiteSpace=wrap;html=1;rounded=1;" vertex="1" parent="WIyWlLk6GJQsqaUBKTNV-1">
          <mxGeometry x="160" y="350" width="120" height="60" as="geometry" />
        </mxCell>
        <mxCell id="jwVwiETMQvePcrX8b3Qj-12" value="" style="edgeStyle=orthogonalEdgeStyle;rounded=0;orthogonalLoop=1;jettySize=auto;html=1;" edge="1" parent="WIyWlLk6GJQsqaUBKTNV-1" source="jwVwiETMQvePcrX8b3Qj-9" target="jwVwiETMQvePcrX8b3Qj-11">
          <mxGeometry relative="1" as="geometry" />
        </mxCell>
        <mxCell id="jwVwiETMQvePcrX8b3Qj-9" value="&lt;div&gt;Ask for user input&lt;/div&gt;" style="ellipse;whiteSpace=wrap;html=1;rounded=1;" vertex="1" parent="WIyWlLk6GJQsqaUBKTNV-1">
          <mxGeometry x="160" y="430" width="120" height="60" as="geometry" />
        </mxCell>
        <mxCell id="jwVwiETMQvePcrX8b3Qj-14" value="" style="edgeStyle=orthogonalEdgeStyle;rounded=0;orthogonalLoop=1;jettySize=auto;html=1;" edge="1" parent="WIyWlLk6GJQsqaUBKTNV-1" source="jwVwiETMQvePcrX8b3Qj-11" target="jwVwiETMQvePcrX8b3Qj-13">
          <mxGeometry relative="1" as="geometry" />
        </mxCell>
        <mxCell id="jwVwiETMQvePcrX8b3Qj-11" value="user input= variable 2" style="whiteSpace=wrap;html=1;rounded=1;" vertex="1" parent="WIyWlLk6GJQsqaUBKTNV-1">
          <mxGeometry x="360" y="430" width="120" height="60" as="geometry" />
        </mxCell>
        <mxCell id="jwVwiETMQvePcrX8b3Qj-16" value="" style="edgeStyle=orthogonalEdgeStyle;rounded=0;orthogonalLoop=1;jettySize=auto;html=1;" edge="1" parent="WIyWlLk6GJQsqaUBKTNV-1" source="jwVwiETMQvePcrX8b3Qj-13" target="jwVwiETMQvePcrX8b3Qj-15">
          <mxGeometry relative="1" as="geometry" />
        </mxCell>
        <mxCell id="jwVwiETMQvePcrX8b3Qj-13" value="Var1+var2" style="triangle;whiteSpace=wrap;html=1;rounded=1;" vertex="1" parent="WIyWlLk6GJQsqaUBKTNV-1">
          <mxGeometry x="390" y="280" width="60" height="80" as="geometry" />
        </mxCell>
        <mxCell id="jwVwiETMQvePcrX8b3Qj-15" value="Finish" style="shape=singleArrow;whiteSpace=wrap;html=1;arrowWidth=0.4;arrowSize=0.4;rounded=1;" vertex="1" parent="WIyWlLk6GJQsqaUBKTNV-1">
          <mxGeometry x="380" y="130" width="80" height="60" as="geometry" />
        </mxCell>
      </root>
    </mxGraphModel>
  </diagram>
</mxfile>
